<?xml version="1.0" encoding="utf-8"?>
<!-- Generator: Adobe Illustrator 21.0.1, SVG Export Plug-In . SVG Version: 6.00 Build 0)  -->
<svg version="1.1" id="Layer_1" xmlns="http://www.w3.org/2000/svg" xmlns:xlink="http://www.w3.org/1999/xlink" x="0px" y="0px"
	 width="51.9px" height="51.9px" viewBox="0 0 51.9 51.9" style="enable-background:new 0 0 51.9 51.9;" xml:space="preserve">
<style type="text/css">
	.st0{fill:#418FFF;}
</style>
<g>
	<path class="st0" d="M8,51.3l-7.4-7.4c-0.9-0.9-0.9-2.2,0-3.1L40.8,0.6c0.9-0.9,2.2-0.9,3.1,0L51.3,8c0.9,0.9,0.9,2.2,0,3.1
		L11.1,51.3C10.3,52.2,8.9,52.2,8,51.3z"/>
	<path class="st0" d="M51.3,43.9l-7.4,7.4c-0.9,0.9-2.2,0.9-3.1,0L0.6,11.1c-0.9-0.9-0.9-2.2,0-3.1L8,0.6c0.9-0.9,2.2-0.9,3.1,0
		l40.2,40.2C52.2,41.7,52.2,43,51.3,43.9z"/>
</g>
</svg>
